<svg width="64" height="64" viewBox="0 0 64 64" fill="none" xmlns="http://www.w3.org/2000/svg">
<path d="M44.6457 29.1953H41.1366C40.4846 29.1953 39.9073 29.6165 39.7082 30.2374L36.4383 40.438C36.128 41.406 36.8501 42.3959 37.8667 42.3959H39.6576C40.2301 42.3959 40.6858 42.8756 40.6563 43.4473L40.1019 54.2157C40.088 54.4844 40.4503 54.5823 40.5737 54.3432L48.2671 39.4379C48.7824 38.4395 48.0577 37.2499 46.9342 37.2499H45.4366C44.7547 37.2499 44.2728 36.5822 44.4875 35.9349L46.0694 31.1676C46.3915 30.1967 45.6687 29.1953 44.6457 29.1953Z" fill="#FFD400"/>
<path d="M49.0902 41.4556L50.1203 39.4598C51.031 37.6955 49.7502 35.5931 47.7647 35.5931H46.3466L47.8626 31.0242C48.432 29.3083 47.1545 27.5385 45.3466 27.5385H40.7675C39.6153 27.5385 38.5949 28.2828 38.2432 29.3801L34.6489 40.5926C34.5561 40.882 34.5155 41.1726 34.5209 41.4556L16.5917 41.4556C9.6375 41.4556 4 35.8181 4 28.8639C4 21.9097 9.6375 16.2722 16.5917 16.2722C18.0996 16.2722 19.5456 16.5372 20.8856 17.0233C23.5295 10.5564 29.8835 6 37.3018 6C47.0926 6 55.0296 13.937 55.0296 23.7278C55.0296 24.1591 55.0142 24.5868 54.9839 25.0104C57.9447 26.3737 60 29.3669 60 32.8402C60 37.5984 56.1427 41.4556 51.3846 41.4556H49.0902Z" fill="white"/>
</svg>
